<svg width="122" height="122" viewBox="0 0 122 122" fill="none" xmlns="http://www.w3.org/2000/svg">
<circle cx="61" cy="61" r="61" fill="white"/>
<circle cx="61" cy="61" r="56" fill="url(#paint0_linear)"/>
<path fill-rule="evenodd" clip-rule="evenodd" d="M77.6629 72.6064C75.3916 73.3194 69.534 69.0414 68.0995 67.9719C66.904 67.14 65.8281 65.4764 65.1109 63.4562C64.3936 61.436 64.2741 59.4158 62.1223 59.1781C59.4923 58.8216 59.2532 62.2678 59.0142 63.3373C58.2969 65.3575 57.3406 66.7835 56.1451 67.9719C54.352 69.5167 48.9725 73.3194 46.3426 73.0818C44.5494 69.8732 48.853 63.575 50.2875 62.149C51.6025 60.723 52.9174 59.5346 54.4715 58.4651C56.0256 57.2768 57.8187 56.5638 59.6119 55.4942C58.8946 55.0189 58.2969 54.3059 57.5796 53.8306C56.8624 53.2364 56.2647 52.6422 55.6669 52.048C54.2324 52.5234 50.0484 55.4942 48.9725 56.5638C48.6139 56.9203 48.2553 57.3956 47.8966 57.7521C46.9403 58.584 46.5816 58.9405 45.7448 60.1288C44.4299 61.6737 43.2344 63.575 42.2781 65.8329C40.6045 69.9921 41.3217 70.4674 41.2022 73.4383C29.3674 74.8643 29.726 85.2029 37.855 88.8868C57.8187 97.9182 75.3916 74.8643 84.3574 78.3105C86.3896 79.1423 86.5091 81.6379 85.1942 83.4204C82.3251 87.2231 73.3594 85.0841 72.2835 85.0841C71.8053 85.2029 67.8604 87.4608 67.2627 88.0549L68.219 88.6491C70.6099 89.9563 75.033 90.4316 77.7825 90.4316C83.6401 90.5505 88.5414 89.1245 90.4541 83.7769C92.3668 78.7858 89.1391 73.0818 82.5642 73.2006C82.4447 65.2387 77.7825 60.01 72.8812 55.3754C71.4467 54.0682 68.8167 52.4045 67.6213 51.335C67.9799 50.9785 67.7408 51.2162 68.0995 50.8597C68.219 50.7409 68.3385 50.622 68.4581 50.5032L70.7294 47.77C71.5662 46.4628 72.2835 44.6803 72.403 42.6601C72.5226 38.5009 70.6099 35.1735 68.219 33.6287C61.2855 28.8753 52.7979 35.2924 54.1129 43.0166C54.352 44.6803 55.3083 46.7005 56.0256 47.6512C56.5037 48.2453 57.1015 49.0772 57.5796 49.5525C61.2855 53.7117 69.2949 57.5144 73.718 63.2185C74.7939 64.6445 78.2606 70.2297 77.6629 72.6064ZM53.037 76.0526C54.2324 76.8845 57.3406 77.954 60.0901 79.9742C59.6119 80.806 57.6992 81.519 56.8624 81.8755C53.3956 83.5392 55.0692 80.9249 45.8644 78.7858C42.8758 78.0728 39.17 77.8352 37.4963 79.8554C35.225 82.3509 39.5286 84.4899 41.4413 85.2029C52.2002 88.6491 61.405 82.232 70.4903 77.241L72.1639 76.1715C69.1753 74.5078 65.1109 72.4876 62.9591 69.7544C62.6005 69.2791 62.4809 69.0414 61.8832 68.5661C61.1659 69.3979 61.2855 69.6356 60.2096 70.7051C58.2969 72.6064 57.9383 72.9629 55.5474 74.5078C54.7106 74.9831 53.6347 75.3396 53.037 76.0526ZM63.5568 48.2453C70.3708 43.6108 67.3822 36.4807 62.72 36.956C60.3291 37.1937 58.1774 39.9269 59.0142 42.7789C59.6119 44.918 62.1223 47.6512 63.5568 48.2453Z" fill="white"/>
<circle cx="103.5" cy="108.5" r="13.5" fill="white"/>
<circle cx="103.5" cy="108.5" r="11.25" fill="#4CD964"/>
<path d="M103.5 104V113" stroke="white" stroke-width="1.5" stroke-linecap="round" stroke-linejoin="round"/>
<path d="M99 109H108" stroke="white" stroke-width="1.5" stroke-linecap="round" stroke-linejoin="round"/>
<defs>
<linearGradient id="paint0_linear" x1="61" y1="5" x2="61" y2="117" gradientUnits="userSpaceOnUse">
<stop stop-color="#A8ACEB"/>
<stop offset="1" stop-color="#8B91C7"/>
</linearGradient>
</defs>
</svg>
